<svg xmlns="http://www.w3.org/2000/svg" viewBox="0 0 1496 478" preserveAspectRatio="xMidYMid" width="1496" height="478" xmlns:xlink="http://www.w3.org/1999/xlink" style="shape-rendering:auto;display:block;background-position-x:0%;background-position-y:0%;background-size:auto;background-origin:padding-box;background-clip:border-box;background:scroll rgba(0, 0, 0, 0) none  repeat;width:1496px;height:478px;;animation:none"><g><linearGradient y2="0" y1="0" x2="1" x1="0" id="lg-tn1l7db5e9h"><stop offset="0" stop-color="#007bff"></stop>

  
<stop offset="1" stop-color="#003873"></stop></linearGradient>
<path opacity="0.4" fill="url(#lg-tn1l7db5e9h)" d="M 0 0 L 0 237.37 Q 187 241.78 374 226.99 T 748 202.93 T 1122 112.47 T 1496 131.04 L 1496 0 Z" style="fill:url('#lg-tn1l7db5e9h');opacity:0.4;;animation:none"></path>
<path opacity="0.4" fill="url(#lg-tn1l7db5e9h)" d="M 0 0 L 0 208.6 Q 187 223.257 374 202.866 T 748 195.916 T 1122 188.567 T 1496 136.75 L 1496 0 Z" style="fill:url('#lg-tn1l7db5e9h');opacity:0.4;;animation:none"></path>
<path opacity="0.4" fill="url(#lg-tn1l7db5e9h)" d="M 0 0 L 0 235.24 Q 187 224.52 374 195.925 T 748 139.9 T 1122 130.46 T 1496 119.975 L 1496 0 Z" style="fill:url('#lg-tn1l7db5e9h');opacity:0.4;;animation:none"></path>
<path opacity="0.4" fill="url(#lg-tn1l7db5e9h)" d="M 0 0 L 0 271.405 Q 187 215.766 374 182.34 T 748 205.169 T 1122 143.452 T 1496 76.0311 L 1496 0 Z" style="fill:url('#lg-tn1l7db5e9h');opacity:0.4;;animation:none"></path>
<g></g></g><!-- [ldio] generated by https://loading.io --></svg>